<svg xmlns="http://www.w3.org/2000/svg" xmlns:xlink="http://www.w3.org/1999/xlink" width="25" height="24" viewBox="0 0 25 24"><defs><path id="et30a" d="M751.613 1071c-1.104 0-2 .72-2 1.608v9.784c0 .89.896 1.608 2 1.608s2-.719 2-1.608v-9.784c0-.89-.896-1.608-2-1.608"/><path id="et30b" d="M764.612 1060c-1.103 0-2 .717-2 1.6v20.8c0 .885.897 1.6 2 1.6 1.104 0 2-.715 2-1.6v-20.8c0-.883-.896-1.6-2-1.6"/><path id="et30c" d="M771.613 1064c-1.103 0-2 .747-2 1.667v16.666c0 .922.897 1.667 2 1.667 1.104 0 2-.745 2-1.667v-16.666c0-.92-.896-1.667-2-1.667"/><path id="et30d" d="M756.613 1067.636v14.728c0 .905.896 1.636 2 1.636s2-.731 2-1.636v-14.728c0-.903-.896-1.636-2-1.636s-2 .733-2 1.636z"/></defs><g><g transform="translate(-749 -1060)"><use fill="#fff" xlink:href="#et30a"/></g><g transform="translate(-749 -1060)"><use fill="#fff" xlink:href="#et30b"/></g><g transform="translate(-749 -1060)"><use fill="#fff" xlink:href="#et30c"/></g><g transform="translate(-749 -1060)"><use fill="#fff" xlink:href="#et30d"/></g></g></svg>