<svg id="Layer_1" data-name="Layer 1" xmlns="http://www.w3.org/2000/svg" viewBox="0 0 10.6 58.2"><defs><style>.cls-1{fill:#d41217;}</style></defs><title>hamburger-menu</title><path class="cls-1" d="M44.6,49.9a5.3,5.3,0,1,0,5.3-5.3A5.34,5.34,0,0,0,44.6,49.9Z" transform="translate(-44.6 -20.8)"/><path class="cls-1" d="M44.6,26.1a5.3,5.3,0,1,0,5.3-5.3A5.34,5.34,0,0,0,44.6,26.1Z" transform="translate(-44.6 -20.8)"/><path class="cls-1" d="M44.6,73.6A5.42,5.42,0,0,0,49.9,79a5.36,5.36,0,0,0,5.3-5.4,5.42,5.42,0,0,0-5.3-5.4A5.49,5.49,0,0,0,44.6,73.6Z" transform="translate(-44.6 -20.8)"/></svg>