<svg id="Layer_1" data-name="Layer 1" xmlns="http://www.w3.org/2000/svg" viewBox="0 0 71.7 81.7"><title>pdf</title><path d="M14.15,21.65v81.7h71.7v-66l-15.6-15.7Zm56.7,3.4L82.75,37H70.85Zm-54.7,76.2V23.65h52.7V39H84v62.3Z" transform="translate(-14.15 -21.65)"/><path d="M37.55,58.45a4.81,4.81,0,0,0-2.2-.8,16.54,16.54,0,0,0-2.7-.2h-6.8v18h2.4v-7.3h4.6c2.5,0,4.3-.5,5.3-1.6a5.61,5.61,0,0,0,1.5-3.9,7,7,0,0,0-.5-2.5A8.94,8.94,0,0,0,37.55,58.45Zm-1.5,6.6a4.65,4.65,0,0,1-3.3.9h-4.7v-6.4h4.6a9.47,9.47,0,0,1,2.2.2,2.7,2.7,0,0,1,1.5,1.1,3.29,3.29,0,0,1,.6,1.9A2.36,2.36,0,0,1,36.05,65.05Z" transform="translate(-14.15 -21.65)"/><path d="M55.65,59a5.81,5.81,0,0,0-2.6-1.3,12.75,12.75,0,0,0-3.2-.3h-6.2v18h6.5a12.31,12.31,0,0,0,2.9-.3,5.79,5.79,0,0,0,2.1-.9,6.07,6.07,0,0,0,1.6-1.6A8.93,8.93,0,0,0,58,70a13.61,13.61,0,0,0,.5-3.6,11.76,11.76,0,0,0-.7-4.3A6.86,6.86,0,0,0,55.65,59Zm-.1,10.8a6.31,6.31,0,0,1-1.3,2.3,3.54,3.54,0,0,1-1.6.9,10.36,10.36,0,0,1-2.8.3h-3.8V59.55h3.8A8.28,8.28,0,0,1,53,60a4.79,4.79,0,0,1,2.3,2,8.6,8.6,0,0,1,.9,4.3A15.84,15.84,0,0,1,55.55,69.75Z" transform="translate(-14.15 -21.65)"/><polygon points="48.8 53.7 51.2 53.7 51.2 45.6 59.7 45.6 59.7 43.4 51.2 43.4 51.2 37.9 61 37.9 61 35.7 48.8 35.7 48.8 53.7"/></svg>