<svg xmlns="http://www.w3.org/2000/svg" xmlns:xlink="http://www.w3.org/1999/xlink" width="20" height="20" viewBox="0 0 20 20"><defs><path id="f6g3a" d="M1302.933 106c3.334 0 6.067-2.733 6.067-6.067 0-3.333-2.733-6.066-6.067-6.066-3.333 0-6.066 2.733-6.066 6.066 0 3.334 2.733 6.067 6.066 6.067zm4.6.4c-1.266.933-2.866 1.467-4.6 1.467a7.91 7.91 0 0 1-7.933-7.934 7.91 7.91 0 0 1 7.933-7.933 7.91 7.91 0 0 1 7.934 7.933c0 1.734-.534 3.334-1.467 4.6l5.2 5.2a1.289 1.289 0 0 1 0 1.867 1.289 1.289 0 0 1-1.867 0l-5.2-5.2z"/></defs><g><g transform="translate(-1295 -92)"><use fill="#fff" xlink:href="#f6g3a"/></g></g></svg>