<svg id="Layer_1" data-name="Layer 1" xmlns="http://www.w3.org/2000/svg" viewBox="0 0 24.17 32"><title>xls</title><path d="M14.29,23.77h-1l-.62,1c-.11.19-.2.35-.27.49l-.09.16a.78.78,0,0,1-.08.16h0l-.08-.16L12,25.3c-.08-.16-.18-.33-.27-.49l-.63-1H10L11.46,26,9.93,28.44H11l.67-1.12c.15-.25.28-.49.4-.71l.1-.19h0l.09.19.1.18c.09.18.19.35.29.53l.67,1.12h1L12.89,26Z" transform="translate(-3.92 -4)"/><polygon points="11.74 19.77 10.85 19.77 10.85 24.44 13.92 24.44 13.92 23.64 11.74 23.64 11.74 19.77"/><path d="M18.49,24a1.29,1.29,0,0,0-.38,1.09,1.31,1.31,0,0,0,.31,1,2.8,2.8,0,0,0,1.42.31l.49,0a.91.91,0,0,1,.53.14c.09.07.13.22.13.45a.77.77,0,0,1-.16.58,1.39,1.39,0,0,1-.76.13,2.39,2.39,0,0,1-.94-.11c-.11-.07-.17-.27-.17-.6V27H18.1v.17a1.29,1.29,0,0,0,.36,1.08,2.67,2.67,0,0,0,1.46.27,3,3,0,0,0,1.59-.27,1.51,1.51,0,0,0,.35-1.2,1.25,1.25,0,0,0-.3-1,2.76,2.76,0,0,0-1.35-.3,3.58,3.58,0,0,1-1-.13c-.11-.06-.16-.24-.16-.53a.53.53,0,0,1,.2-.49,1.77,1.77,0,0,1,.82-.12,1.3,1.3,0,0,1,.67.11c.1.06.16.23.18.49a.46.46,0,0,0,0,.1h.86V25a1.1,1.1,0,0,0-.37-1A2.78,2.78,0,0,0,20,23.73,2.73,2.73,0,0,0,18.49,24Z" transform="translate(-3.92 -4)"/><path d="M3.92,4V36H28.08V10.69L21.39,4ZM27.58,35.5H4.42V4.5H20.78v6.81h6.8V35.5Zm-6.3-24.69V4.59l6.21,6.22Z" transform="translate(-3.92 -4)"/></svg>